PathFileType	4	(X/Y/Z)	SUBJ94_3_walk_RCNL2025.trc
DataRate	CameraRate	NumFrames	NumMarkers	Units	OrigDataRate	OrigDataStartFrame	OrigNumFrames
100	100	9	25	mm	100	139	368
Frame#	Time	R_Shoulder			L_Shoulder			C7			J_Notch			R_Elbow			L_Elbow			R_Wrist			L_Wrist			R_Asis			L_Asis			Sacral			Thoracic			Sternum			R_Thigh_Lateral			R_Knee_Lateral			R_Shank_Lateral			R_Ankle_Lateral			R_Heel			R_Toe			L_Thigh_Lateral			L_Knee_Lateral			L_Shank_Lateral			L_Ankle_Lateral			L_Heel			L_Toe		
		X1	Y1	Z1	X2	Y2	Z2	X3	Y3	Z3	X4	Y4	Z4	X5	Y5	Z5	X6	Y6	Z6	X7	Y7	Z7	X8	Y8	Z8	X9	Y9	Z9	X10	Y10	Z10	X11	Y11	Z11	X12	Y12	Z12	X13	Y13	Z13	X14	Y14	Z14	X15	Y15	Z15	X16	Y16	Z16	X17	Y17	Z17	X18	Y18	Z18	X19	Y19	Z19	X20	Y20	Z20	X21	Y21	Z21	X22	Y22	Z22	X23	Y23	Z23	X24	Y24	Z24	X25	Y25	Z25
139	1.38000000	-1120.270264	1251.157104	439.821350	-1149.563232	1249.862915	61.986534	-1194.883179	1336.463623	256.403442	-1086.390869	1240.750244	245.793808	-1099.848145	976.983459	540.547729	-1241.613403	976.178833	7.280457	-945.619324	812.050781	526.578293	-1132.242126	771.334076	-21.468955	-1095.555420	865.485779	379.953522	-1083.766113	857.556885	155.155884	-1278.641846	920.137634	242.881424	-1268.656128	1137.028809	254.550507	-1056.739868	1048.216431	255.963028	-1209.999390	525.736328	432.246521	-1234.749390	434.465088	371.027191	-1273.066162	250.228622	397.561951	-1306.901245	52.190708	307.242004	-1350.241333	55.428894	258.597137	-1174.597168	30.465418	280.545471	-1019.167847	539.735962	62.369137	-982.817993	455.659180	117.339256	-989.366272	276.772491	58.641338	-1000.326538	76.908806	162.379135	-1032.501343	67.466309	217.318100	-876.944763	63.560047	171.003845
140	1.39000000	-1108.654663	1249.556030	439.847626	-1139.042847	1247.654907	62.133636	-1183.429565	1334.861450	256.633057	-1075.193970	1238.656616	246.113419	-1084.284668	975.988281	540.984680	-1233.220459	974.615723	8.033126	-926.580383	814.626221	523.901993	-1126.789734	768.381714	-21.822064	-1085.242432	864.147949	380.589142	-1071.871948	855.415649	155.819305	-1267.413696	918.278625	241.640533	-1257.638184	1135.588501	254.519974	-1045.866943	1046.137939	256.461365	-1203.698730	525.477295	432.611359	-1229.632935	434.530060	371.276062	-1270.783325	250.685745	397.631714	-1306.675781	52.990749	306.879089	-1349.829590	56.766415	258.091003	-1174.450806	30.403006	280.611816	-1008.769836	536.530884	62.671398	-970.894836	453.437225	117.912964	-969.178406	274.321838	58.902973	-966.731079	73.409805	162.868408	-998.491089	62.325844	217.813446	-842.513977	66.587051	171.572311
141	1.40000000	-1096.965942	1247.922485	439.804718	-1128.401123	1245.427246	62.219395	-1171.881104	1333.234619	256.780121	-1063.890137	1236.521484	246.363876	-1068.880127	974.992798	541.354065	-1224.521240	973.003052	8.686184	-908.007446	817.128632	521.230972	-1121.036011	765.477142	-22.276436	-1074.850586	862.811157	381.181549	-1059.875977	853.230957	156.434052	-1256.077393	916.395813	240.333862	-1246.522217	1134.124023	254.414856	-1034.909180	1044.009644	256.887115	-1197.094604	525.208252	433.007355	-1224.128174	434.569000	371.570435	-1268.158447	251.145782	397.764557	-1306.397705	53.889706	306.629791	-1349.417969	58.239479	257.743225	-1174.287964	30.359241	280.698914	-998.642273	533.091980	62.903694	-959.195190	451.012665	118.440865	-949.582397	272.139862	59.115574	-934.681091	70.691704	163.236847	-966.138672	58.048958	218.097153	-809.960144	70.012100	172.335861
142	1.41000000	-1085.197998	1246.291382	439.685608	-1117.616333	1243.213623	62.236191	-1160.231689	1331.611816	256.834930	-1052.471069	1234.383301	246.532715	-1053.668091	974.017212	541.650879	-1215.479004	971.365417	9.233521	-889.930481	819.549652	518.580429	-1114.955383	762.634949	-22.833494	-1064.358398	861.492310	381.733276	-1047.773926	851.051086	157.002655	-1244.621582	914.527710	238.989349	-1235.295776	1132.661499	254.237762	-1023.851440	1041.872070	257.230011	-1190.155762	524.935120	433.437103	-1218.205078	434.577637	371.917145	-1265.158569	251.611786	397.971130	-1306.057251	54.898254	306.518829	-1349.001099	59.865170	257.582764	-1174.102417	30.332750	280.808350	-988.664001	529.544189	63.091743	-947.646423	448.470612	118.940491	-930.597717	270.214783	59.309917	-904.521179	68.647438	163.508148	-935.800049	54.542637	218.195038	-779.588196	73.616867	173.296539
143	1.42000000	-1073.346680	1244.697754	439.484985	-1106.667480	1241.047363	62.177223	-1148.476318	1330.022095	256.789001	-1040.928955	1232.281860	246.609070	-1038.683716	973.080933	541.871216	-1206.060913	969.728088	9.669353	-872.377441	821.880981	515.965515	-1108.522888	759.870728	-23.493590	-1053.742920	860.206970	382.246643	-1035.562378	848.924377	157.527496	-1233.036133	912.711548	237.636642	-1223.947388	1131.227173	253.991943	-1012.677490	1039.766968	257.482269	-1182.853394	524.663757	433.901733	-1211.833862	434.552582	372.322418	-1261.758423	252.091385	398.260559	-1305.643188	56.029102	306.565460	-1348.566406	61.665161	257.630615	-1173.888184	30.318291	280.939087	-978.711548	526.015564	63.263367	-936.185913	445.894257	119.427269	-912.264282	268.524475	59.514832	-876.563293	67.145775	163.712387	-907.789551	51.693687	218.145279	-751.663269	77.161148	174.444489
144	1.43000000	-1061.409180	1243.175415	439.199371	-1095.535156	1238.960327	62.036827	-1136.611938	1328.493652	256.635559	-1029.257324	1230.256714	246.584122	-1023.962646	972.202515	542.012207	-1196.239624	968.116638	9.988449	-855.373535	824.114044	513.400940	-1101.714355	757.201263	-24.255901	-1042.980347	858.969421	382.722961	-1023.238220	846.898376	158.010147	-1221.311768	910.982422	236.306488	-1212.466797	1129.846191	253.681274	-1001.370911	1037.736206	257.638611	-1175.161011	524.399719	434.400513	-1204.984253	434.490784	372.791443	-1257.939697	252.597427	398.639557	-1305.141724	57.297832	306.781708	-1348.092041	63.666515	257.897858	-1173.640259	30.305984	281.086823	-968.666626	522.630981	63.446003	-924.763245	443.361237	119.913361	-894.640930	267.038208	59.754925	-851.068054	66.042191	163.883286	-882.362915	49.379555	217.994690	-726.394043	80.399094	175.760635
145	1.44000000	-1049.383911	1241.757080	438.827423	-1084.202515	1236.982910	61.810768	-1124.636841	1327.053345	256.369751	-1017.450623	1228.346436	246.451477	-1009.539856	971.398926	542.072205	-1185.993408	966.556030	10.186341	-838.941254	826.239716	510.900833	-1094.506104	754.644165	-25.118348	-1032.046997	857.792114	383.161926	-1010.799561	845.018738	158.450745	-1209.441528	909.372498	235.029922	-1200.845581	1128.542603	253.310287	-989.915405	1035.820557	257.696289	-1167.053833	524.146973	434.930817	-1197.625000	434.389374	373.328186	-1253.690674	253.148087	399.111969	-1304.535156	58.723808	307.171051	-1347.544800	65.902252	258.384003	-1173.356201	30.281046	281.243774	-958.423218	519.505798	63.663879	-913.342346	440.940826	120.406647	-877.800598	265.719208	60.048752	-828.228088	65.190910	164.054825	-859.702271	47.479359	217.794083	-703.918335	83.097153	177.219742
146	1.45000000	-1037.271484	1240.472778	438.369995	-1072.655762	1235.142944	61.496540	-1112.551147	1325.726685	255.989273	-1005.505005	1226.587402	246.207489	-995.448669	970.685181	542.050537	-1175.307251	965.070435	10.259529	-823.099823	828.248199	508.478470	-1086.874756	752.217529	-26.077540	-1020.920471	856.686035	383.561005	-998.246277	843.328369	158.847656	-1197.420410	907.910461	233.837311	-1189.077271	1127.338623	252.884079	-978.295898	1034.058228	257.655090	-1158.507080	523.907532	435.488312	-1189.723145	434.245056	373.935333	-1249.004028	253.766830	399.678436	-1303.800171	60.331165	307.728394	-1346.877686	68.411682	259.076996	-1173.037476	30.224234	281.398468	-947.894409	516.739624	63.935280	-901.901917	438.691650	120.910164	-861.821655	264.527954	60.407505	-808.155579	64.456757	164.257751	-839.906067	45.883991	217.592987	-684.293213	85.051987	178.792679
147	1.46000000	-1025.073975	1239.349121	437.830261	-1060.885010	1233.465698	61.093613	-1100.356934	1324.536377	255.494339	-993.418640	1225.012573	245.851486	-981.719116	970.074402	541.947693	-1164.172607	963.682617	10.205677	-807.865265	830.128754	506.146088	-1078.797668	749.939697	-27.128748	-1009.581299	855.660278	383.915253	-985.580444	841.866394	159.197342	-1185.246948	906.621338	232.757401	-1177.158325	1126.254883	252.408264	-966.499390	1032.484131	257.517181	-1149.494873	523.680542	436.067444	-1181.243408	434.053497	374.614258	-1243.873901	254.481567	400.336365	-1302.906128	62.149742	308.440460	-1346.029297	71.240372	259.953888	-1172.691162	30.113316	281.536499	-937.017456	514.412170	64.270248	-890.435730	436.660309	121.421822	-846.777466	263.425812	60.834404	-790.874695	63.725685	164.516174	-822.983459	44.504147	217.434662	-667.490051	86.106613	180.448135
